# xmcd
#
# Track frame offsets:
#	150
#	17279
#	28155
#	51967
#	63033
#	76962
#	92292
#	114735
#	133957
#	164267
#	177099
#	192225
#	211779
#	227865
#	242424
#
# Disc length: 3845 seconds
#
# Revision: 1
# Processed by: cddbd v1.5.2PL0 Copyright (c) Steve Scherf et al.
# Submitted via: EasyCDDAExtractor 16.0.6.1
#
DISCID=b80f030f
DTITLE=Η λεβεντιά της Κρήτης 1
DYEAR=2013
DGENRE=Κρητική
TTITLE0=Σκουλάς Βασίλης - Η λευτεριά 'ναι μια φωθιά
TTITLE1=Μουντάκης Μάνος - Χίτλερ να μην το καυχηθείς
TTITLE2=Ανδρουλάκης Νίκος - Αετόπουλ'απ' τον Ομαλό
TTITLE3=Σκουλάς Βασίλης - Όρκο βαρύ θα δώσω
TTITLE4=Μουντάκης Μάνος - Δέστε και καμαρώστε
TTITLE5=Δερμιτζογιάννης - Κρήτη μητέρα τσ' αρχοντιάς
TTITLE6=Σκουλάς Βασίλης - Ο άντρας κάνει τη γενιά
TTITLE7=Άνευ ερμηνευτού - Μαλεβιζιώτικος χορός [οργ., Γιώργος Αβυσσινός]
TTITLE8=Μουντάκης Κώστας - Χανιώτικό μου γιασεμί
TTITLE9=Ξυλούρης Νίκος - Ίντά 'χετε γυρού γυρού
TTITLE10=Λαγός Μανώλης - Τρώτε και πίνετε άρχοντες
TTITLE11=Άνευ ερμηνευτού - Πεντοζάλης [οργ., Γιώργος Αβυσσινός]
TTITLE12=Μανιάς Νίκος - Τη συντροφιά σας χαίρομαι
TTITLE13=Καραβίτης Αλέκος - Συρτός ριζίτικος
TTITLE14=Ψαραντώνης - Συρτά 1965-80
EXTD=
EXTT0=
EXTT1=
EXTT2=
EXTT3=
EXTT4=
EXTT5=
EXTT6=
EXTT7=
EXTT8=
EXTT9=
EXTT10=
EXTT11=
EXTT12=
EXTT13=
EXTT14=
PLAYORDER=
